<svg width="1852" height="1006" viewBox="0 0 1852 1006" fill="none" xmlns="http://www.w3.org/2000/svg">
<path d="M1852 39.75C1852 32.5482 1852 28.9474 1851.42 25.9498C1848.95 13.1 1838.9 3.05128 1826.05 0.577156C1823.05 0 1819.45 0 1812.25 0H51.2C33.2783 0 24.3175 0 17.4723 3.48779C11.4511 6.55574 6.55574 11.4511 3.48779 17.4723C0 24.3175 0 33.2783 0 51.2V428.955C0 445.824 13.6757 459.5 30.5455 459.5H62.75C213.662 459.5 336 581.838 336 732.75V757C336 894.519 447.481 1006 585 1006V1006C722.519 1006 834 894.519 834 757V542.75C834 286.904 1041.4 79.5 1297.25 79.5H1820.43C1837.87 79.5 1852 65.3675 1852 47.9341V39.75Z" fill="url(#paint0_linear_2_4)"/>
<defs>
<linearGradient id="paint0_linear_2_4" x1="926" y1="1559" x2="926" y2="-31.5001" gradientUnits="userSpaceOnUse">
<stop stop-color="#333333" stop-opacity="0.2"/>
<stop offset="0.941298" stop-color="#333333" stop-opacity="0"/>
</linearGradient>
</defs>
</svg>
